<svg xmlns="http://www.w3.org/2000/svg" width="62" height="62" viewBox="0 0 62 62" fill="none">
  <path d="M28.5566 5.4826L47.0839 11.2708C47.6006 11.4321 48.0523 11.7544 48.3729 12.1905C48.6935 12.6267 48.8663 13.1539 48.8661 13.6953V18.176H53.9434C54.6167 18.176 55.2625 18.4435 55.7386 18.9196C56.2147 19.3957 56.4821 20.0414 56.4821 20.7147V25.7921H23.4792V20.7147C23.4792 20.0414 23.7467 19.3957 24.2228 18.9196C24.6989 18.4435 25.3446 18.176 26.0179 18.176H43.7887V15.5612L28.5566 10.7986L13.3244 15.5612V34.3576C13.3241 35.9119 13.6805 37.4455 14.3662 38.8403C15.052 40.2351 16.0487 41.4539 17.2797 42.4027L17.7595 42.748L28.5566 50.1127L38.1579 43.5629H26.0179C25.3446 43.5629 24.6989 43.2954 24.2228 42.8193C23.7467 42.3433 23.4792 41.6975 23.4792 41.0242V30.8695H56.4821V41.0242C56.4821 41.6975 56.2147 42.3433 55.7386 42.8193C55.2625 43.2954 54.6167 43.5629 53.9434 43.5629L45.7689 43.5654C44.7864 44.8602 43.5932 46.0026 42.2147 46.9419L28.5566 56.2563L14.8984 46.9444C12.8485 45.5468 11.171 43.6695 10.0118 41.4759C8.85262 39.2823 8.24681 36.8387 8.24707 34.3576V13.6953C8.24738 13.1544 8.42043 12.6277 8.741 12.1921C9.06158 11.7564 9.51291 11.4345 10.0292 11.2734L28.5566 5.4826Z" fill="url(#paint0_linear_123_708)"/>
  <defs>
    <linearGradient id="paint0_linear_123_708" x1="32.3646" y1="5.4826" x2="97.2766" y2="22.9355" gradientUnits="userSpaceOnUse">
      <stop stop-color="#FD5A14"/>
      <stop offset="0.609375" stop-color="#FFF06B" stop-opacity="0.59"/>
      <stop offset="1" stop-color="#060ED0" stop-opacity="0.28"/>
    </linearGradient>
  </defs>
</svg>