<svg xmlns="http://www.w3.org/2000/svg" width="53" height="46" viewBox="0 0 53 46" fill="none">
  <g clip-path="url(#clip0_123_682)">
    <path d="M46.4099 45.7239H7.01837C5.20609 45.7239 3.65881 45.0864 2.37654 43.8114C1.09426 42.5364 0.453125 40.9979 0.453125 39.1959V13.0837C0.453125 12.1997 0.769419 11.4347 1.40201 10.7887C2.0346 10.1427 2.81251 9.81967 3.73575 9.81967H28.3554C28.3554 9.58166 28.552 9.10566 28.9453 8.39165C29.3385 7.67765 29.7232 7.01464 30.0993 6.40264L30.7148 5.53563C30.9542 4.88963 31.4329 4.35412 32.151 3.92912C32.869 3.50412 33.6213 3.29161 34.4078 3.29161H46.7176C47.5383 3.29161 48.3076 3.50412 49.0257 3.92912C49.7438 4.35412 50.2225 4.88963 50.4618 5.53563C52.1373 7.71165 52.9751 9.13966 52.9751 9.81967V39.1959C52.9751 40.9979 52.334 42.5364 51.0517 43.8114C49.7694 45.0864 48.2221 45.7239 46.4099 45.7239ZM33.2794 22.8758C33.2794 21.0738 32.6382 19.5352 31.3559 18.2602C30.0737 16.9852 28.5264 16.3477 26.7141 16.3477C24.9018 16.3477 23.3546 16.9852 22.0723 18.2602C20.79 19.5352 20.1489 21.0738 20.1489 22.8758C20.1489 24.2018 20.5335 25.4173 21.3029 26.5223C22.0723 27.6273 23.0725 28.4178 24.3034 28.8938L20.1489 39.1959H33.2794L29.1248 28.8938C30.3558 28.4178 31.3559 27.6273 32.1253 26.5223C32.8947 25.4173 33.2794 24.2018 33.2794 22.8758ZM2.81251 2.27161C3.05187 1.6256 3.53058 1.0901 4.24866 0.665093C4.96673 0.24009 5.719 0.0275879 6.50546 0.0275879H18.8153C19.636 0.0275879 20.4053 0.24009 21.1234 0.665093C21.8415 1.0901 22.3373 1.6256 22.6108 2.27161L25.0728 6.55564H0.453125L2.81251 2.27161Z" fill="url(#paint0_linear_123_682)"/>
  </g>
  <defs>
    <linearGradient id="paint0_linear_123_682" x1="26.7141" y1="0.0275853" x2="95.2523" y2="22.3228" gradientUnits="userSpaceOnUse">
      <stop stop-color="#05D2FF"/>
      <stop offset="0.609375" stop-color="#253FE0" stop-opacity="0.619792"/>
      <stop offset="1" stop-color="#060ED0" stop-opacity="0.28"/>
    </linearGradient>
    <clipPath id="clip0_123_682">
      <rect width="52.5821" height="45.6964" fill="white" transform="translate(0.422852 0.0275879)"/>
    </clipPath>
  </defs>
</svg>