<svg xmlns="http://www.w3.org/2000/svg" width="95" height="95" viewBox="0 0 95 95" fill="none">
  <path d="M38.229 36.7691L38.2322 35.1602C38.2331 34.8894 38.1535 34.6245 38.0035 34.399C37.8536 34.1735 37.64 33.9976 37.3899 33.8937C37.1398 33.7898 36.8645 33.7626 36.5989 33.8154C36.3333 33.8682 36.0894 33.9988 35.8982 34.1905L24.3822 45.7065C24.2553 45.8338 24.1549 45.9848 24.0865 46.1509C24.0181 46.3171 23.9831 46.495 23.9836 46.6747C23.9841 46.8544 24.0199 47.0322 24.0892 47.1979C24.1584 47.3637 24.2597 47.5142 24.3872 47.6408L35.9057 59.1594C36.0963 59.353 36.3404 59.4851 36.6066 59.5389C36.8729 59.5927 37.1491 59.5657 37.3999 59.4613C37.6506 59.3569 37.8644 59.1798 38.0138 58.953C38.1631 58.7261 38.2412 58.4598 38.2381 58.1882C38.2391 57.8271 38.3829 57.481 38.6383 57.2257C38.8936 56.9704 39.2396 56.8265 39.6008 56.8255L64.1401 56.7934C64.3193 56.7934 64.4968 56.7581 64.6623 56.6896C64.8278 56.621 64.9783 56.5205 65.105 56.3938C65.2316 56.2671 65.3321 56.1167 65.4007 55.9512C65.4692 55.7856 65.5045 55.6082 65.5045 55.429L65.4995 53.2007C65.4974 52.9294 65.5763 52.6637 65.7261 52.4375C65.8759 52.2113 66.0897 52.0348 66.3402 51.9308C66.5908 51.8267 66.8667 51.7997 67.1326 51.8532C67.3986 51.9067 67.6426 52.0383 67.8334 52.2312L79.347 63.7448C79.6032 64.0009 79.7474 64.3482 79.748 64.7104C79.7486 65.0727 79.6057 65.4204 79.3504 65.6774L67.8344 77.1934C67.6427 77.384 67.3989 77.5135 67.1337 77.5657C66.8684 77.6179 66.5937 77.5904 66.3441 77.4867C66.0945 77.383 65.8811 77.2077 65.731 76.983C65.5808 76.7582 65.5006 76.494 65.5003 76.2237L65.497 74.671C65.501 74.4912 65.4685 74.3124 65.4016 74.1454C65.3346 73.9785 65.2345 73.8268 65.1073 73.6996C64.98 73.5724 64.8284 73.4723 64.6614 73.4053C64.4944 73.3383 64.3156 73.3058 64.1358 73.3099L22.8404 73.3083C22.4789 73.3058 22.1329 73.161 21.8773 72.9053C21.6216 72.6497 21.4769 72.3037 21.4743 71.9422L21.4724 21.3967C21.4716 21.2168 21.5065 21.0386 21.5749 20.8723C21.6434 20.7061 21.7441 20.555 21.8712 20.4278C21.9984 20.3007 22.1495 20.2 22.3157 20.1315C22.482 20.0631 22.6602 20.0282 22.84 20.029L92.806 20.0465C93.1676 20.0439 93.5135 19.8992 93.7691 19.6435C94.0247 19.3879 94.1695 19.042 94.1721 18.6805L94.1615 2.21846C94.1601 1.85659 94.0158 1.50991 93.7599 1.25401C93.504 0.998117 93.1573 0.853738 92.7954 0.85236L2.21476 0.85394C1.85288 0.855294 1.50622 0.999644 1.25033 1.25552C0.994454 1.51141 0.850104 1.85807 0.84875 2.21995L0.852128 92.7957C0.853504 93.1575 0.99789 93.5042 1.25379 93.7601C1.50968 94.016 1.85635 94.1604 2.21823 94.1618L92.7923 94.1635C93.1534 94.1625 93.4994 94.0186 93.7548 93.7633C94.0101 93.5079 94.154 93.1619 94.155 92.8008L94.153 39.5132C94.1518 39.1517 94.0077 38.8053 93.752 38.5497C93.4964 38.2941 93.1501 38.1499 92.7886 38.1487L39.6001 38.1467C39.4202 38.1475 39.242 38.1126 39.0758 38.0442C38.9095 37.9757 38.7584 37.875 38.6312 37.7478C38.5041 37.6207 38.4033 37.4696 38.3349 37.3033C38.2664 37.137 38.2315 36.9588 38.2323 36.779L38.229 36.7691Z" fill="white"/>
</svg>