<svg xmlns="http://www.w3.org/2000/svg" width="83" height="79" viewBox="0 0 83 79" fill="none">
  <path d="M36.8994 32.252L36.9008 31.5387C36.9012 31.4186 36.8659 31.3012 36.7994 31.2012C36.7329 31.1012 36.6382 31.0233 36.5273 30.9772C36.4165 30.9311 36.2944 30.9191 36.1767 30.9425C36.0589 30.9659 35.9508 31.0238 35.866 31.1088L30.7604 36.2144C30.7042 36.2708 30.6596 36.3377 30.6293 36.4114C30.599 36.485 30.5835 36.5639 30.5837 36.6436C30.5839 36.7232 30.5998 36.8021 30.6305 36.8756C30.6612 36.9491 30.7061 37.0158 30.7626 37.0719L35.8693 42.1786C35.9538 42.2644 36.062 42.3231 36.1801 42.3469C36.2981 42.3708 36.4206 42.3588 36.5318 42.3125C36.6429 42.2662 36.7377 42.1877 36.8039 42.0871C36.8701 41.9866 36.9048 41.8685 36.9034 41.7481C36.9038 41.588 36.9676 41.4346 37.0808 41.3213C37.194 41.2081 37.3474 41.1444 37.5075 41.1439L48.3869 41.1297C48.4664 41.1297 48.545 41.114 48.6184 41.0837C48.6918 41.0533 48.7585 41.0087 48.8147 40.9525C48.8709 40.8964 48.9154 40.8297 48.9458 40.7563C48.9762 40.6829 48.9918 40.6042 48.9918 40.5248L48.9896 39.5369C48.9887 39.4166 49.0237 39.2988 49.0901 39.1985C49.1565 39.0982 49.2513 39.02 49.3623 38.9739C49.4734 38.9277 49.5957 38.9157 49.7137 38.9395C49.8316 38.9632 49.9398 39.0215 50.0244 39.107L55.1289 44.2115C55.2424 44.3251 55.3064 44.4791 55.3066 44.6397C55.3069 44.8003 55.2435 44.9544 55.1304 45.0684L50.0248 50.174C49.9398 50.2584 49.8317 50.3159 49.7141 50.339C49.5965 50.3622 49.4747 50.35 49.3641 50.304C49.2534 50.258 49.1588 50.1803 49.0922 50.0807C49.0257 49.981 48.9901 49.8639 48.99 49.744L48.9885 49.0557C48.9903 48.9759 48.9759 48.8967 48.9462 48.8226C48.9165 48.7486 48.8721 48.6814 48.8157 48.625C48.7593 48.5686 48.6921 48.5242 48.6181 48.4945C48.544 48.4648 48.4648 48.4504 48.385 48.4522L30.0769 48.4515C29.9166 48.4504 29.7632 48.3862 29.6499 48.2728C29.5365 48.1595 29.4724 48.0061 29.4712 47.8459L29.4704 25.4367C29.47 25.357 29.4855 25.278 29.5158 25.2042C29.5462 25.1305 29.5908 25.0635 29.6472 25.0072C29.7036 24.9508 29.7706 24.9061 29.8443 24.8758C29.918 24.8454 29.997 24.83 30.0767 24.8303L61.0959 24.8381C61.2561 24.8369 61.4095 24.7728 61.5228 24.6594C61.6362 24.5461 61.7003 24.3927 61.7015 24.2325L61.6968 16.9341C61.6962 16.7737 61.6322 16.62 61.5187 16.5065C61.4053 16.3931 61.2516 16.3291 61.0911 16.3285L20.9326 16.3292C20.7721 16.3298 20.6185 16.3938 20.505 16.5072C20.3916 16.6206 20.3276 16.7743 20.327 16.9348L20.3285 57.0911C20.3291 57.2516 20.3931 57.4053 20.5065 57.5187C20.62 57.6322 20.7737 57.6962 20.9341 57.6968L61.0898 57.6976C61.2499 57.6971 61.4033 57.6333 61.5165 57.5201C61.6297 57.4069 61.6935 57.2535 61.6939 57.0934L61.693 33.4686C61.6925 33.3083 61.6286 33.1547 61.5153 33.0414C61.4019 32.9281 61.2484 32.8642 61.0881 32.8636L37.5072 32.8628C37.4275 32.8631 37.3485 32.8476 37.2748 32.8173C37.201 32.7869 37.134 32.7423 37.0777 32.6859C37.0213 32.6295 36.9766 32.5625 36.9463 32.4888C36.9159 32.4151 36.9005 32.3361 36.9008 32.2564L36.8994 32.252Z" fill="white"/>
</svg>