<svg xmlns="http://www.w3.org/2000/svg" width="64" height="64" viewBox="0 0 64 64" fill="none">
  <path fill-rule="evenodd" clip-rule="evenodd" d="M6 12C6 8.6863 8.6863 6 12 6H52C55.3138 6 58 8.68632 58 12V52C58 55.3138 55.3138 58 52 58H12C8.68632 58 6 55.3138 6 52V12ZM12 10C10.8954 10 10 10.8954 10 12V52C10 53.1046 10.8954 54 12 54H52C53.1046 54 54 53.1046 54 52V12C54 10.8954 53.1046 10 52 10H12Z" fill="url(#paint0_linear_123_653)"/>
  <path fill-rule="evenodd" clip-rule="evenodd" d="M15.333 24C15.333 19.2136 19.2132 15.3334 23.9997 15.3334C28.7861 15.3334 32.6663 19.2136 32.6663 24C32.6663 28.7865 28.7861 32.6667 23.9997 32.6667C19.2132 32.6667 15.333 28.7865 15.333 24ZM23.9997 19.3334C21.4224 19.3334 19.333 21.4227 19.333 24C19.333 26.5773 21.4224 28.6667 23.9997 28.6667C26.577 28.6667 28.6663 26.5773 28.6663 24C28.6663 21.4227 26.577 19.3334 23.9997 19.3334Z" fill="url(#paint1_linear_123_653)"/>
  <path fill-rule="evenodd" clip-rule="evenodd" d="M38.6554 36.1562C38.6553 36.1562 38.6553 36.1562 38.6553 36.1562L25.3238 54H50.8891C51.4279 54 51.7442 53.394 51.4361 52.952C51.4361 52.952 51.4361 52.952 51.436 52.952L39.7364 36.1739C39.4764 35.8011 38.9275 35.792 38.6554 36.1562ZM35.451 33.762C37.3556 31.2129 41.1971 31.2756 43.0174 33.8859L43.0174 33.8859L54.7171 50.6641L54.7172 50.6641C56.8743 53.7579 54.6608 58 50.8891 58H21.333C20.5761 58 19.8841 57.5728 19.545 56.8961C19.2059 56.2195 19.2778 55.4093 19.7308 54.803L35.4509 33.7621L35.451 33.762Z" fill="url(#paint2_linear_123_653)"/>
  <defs>
    <linearGradient id="paint0_linear_123_653" x1="6" y1="6" x2="58.634" y2="6.6498" gradientUnits="userSpaceOnUse">
      <stop stop-color="#73E0A9"/>
      <stop offset="1" stop-color="#5B68DF"/>
    </linearGradient>
    <linearGradient id="paint1_linear_123_653" x1="15.333" y1="15.3334" x2="32.8777" y2="15.55" gradientUnits="userSpaceOnUse">
      <stop stop-color="#73E0A9"/>
      <stop offset="1" stop-color="#5B68DF"/>
    </linearGradient>
    <linearGradient id="paint2_linear_123_653" x1="19.333" y1="31.8885" x2="56.0005" y2="32.5167" gradientUnits="userSpaceOnUse">
      <stop stop-color="#73E0A9"/>
      <stop offset="1" stop-color="#5B68DF"/>
    </linearGradient>
  </defs>
</svg>