<svg xmlns="http://www.w3.org/2000/svg" width="195" height="67" viewBox="0 0 195 67" fill="none">
  <g filter="url(#filter0_b_123_812)">
    <path d="M2 3.57051C2 2.70314 2.70314 2 3.57051 2H191.404C192.271 2 192.974 2.70314 192.974 3.57051V49.4295C192.974 50.2969 192.271 51 191.404 51H168.263C167.781 51 167.326 51.2213 167.028 51.6002L157.735 63.4283C157.106 64.2286 155.894 64.2286 155.265 63.4283L145.972 51.6002C145.674 51.2213 145.219 51 144.737 51H3.57051C2.70314 51 2 50.2969 2 49.4295V3.57051Z" fill="#312353"/>
    <path d="M3.57051 1C2.15086 1 1 2.15086 1 3.57051V49.4295C1 50.8491 2.15085 52 3.57051 52H144.737C144.912 52 145.077 52.0804 145.185 52.218L154.479 64.0461C155.508 65.356 157.492 65.356 158.521 64.0461L167.815 52.218C167.923 52.0804 168.088 52 168.263 52H191.404C192.824 52 193.974 50.8491 193.974 49.4295V3.57051C193.974 2.15086 192.824 1 191.404 1H3.57051Z" stroke="url(#paint0_linear_123_812)" stroke-width="2"/>
  </g>
  <defs>
    <filter id="filter0_b_123_812" x="-11" y="-11" width="216.975" height="88.0285" filterUnits="userSpaceOnUse" color-interpolation-filters="sRGB">
      <feFlood flood-opacity="0" result="BackgroundImageFix"/>
      <feGaussianBlur in="BackgroundImageFix" stdDeviation="5.5"/>
      <feComposite in2="SourceAlpha" operator="in" result="effect1_backgroundBlur_123_812"/>
      <feBlend mode="normal" in="SourceGraphic" in2="effect1_backgroundBlur_123_812" result="shape"/>
    </filter>
    <linearGradient id="paint0_linear_123_812" x1="196.318" y1="51" x2="-4.57548" y2="16.4835" gradientUnits="userSpaceOnUse">
      <stop stop-color="#AB2FFE"/>
      <stop offset="0.96875" stop-color="#40AFFD"/>
    </linearGradient>
  </defs>
</svg>